Coordinates
version=1
nRows=16
nColumns=36
inDegrees=yes

Units are S.I. units (second, meters, Newtons, ...)
If the header above contains a line with 'inDegrees', this indicates whether rotational values are in degrees (yes) or radians (no).

endheader
time	pelvis_tilt	pelvis_list	pelvis_rotation	pelvis_tx	pelvis_ty	pelvis_tz	hip_flexion_r	hip_adduction_r	hip_rotation_r	knee_angle_r	knee_angle_r_beta	ankle_angle_r	subtalar_angle_r	mtp_angle_r	hip_flexion_l	hip_adduction_l	hip_rotation_l	knee_angle_l	knee_angle_l_beta	ankle_angle_l	subtalar_angle_l	mtp_angle_l	lumbar_extension	lumbar_bending	lumbar_rotation	arm_flex_r	arm_add_r	arm_rot_r	elbow_flex_r	pro_sup_r	arm_flex_l	arm_add_l	arm_rot_l	elbow_flex_l	pro_sup_l
      1.38000000	    -21.74553587	     -4.94671129	     -7.71132837	     -0.45003255	      0.69201766	     -0.54467150	     96.41989937	     -7.41539632	      3.36869883	    103.74189747	      1.81063768	     24.67420681	     -3.17690993	     -7.36577309	     98.03333902	    -22.21373658	     16.59486169	    111.12388953	      1.93947775	     26.43001111	    -11.94596140	     -7.36577309	    -33.62438589	     -2.44136389	      7.66336301	     54.19120721	    -25.22002591	      8.00563705	    103.55443812	    110.99125554	     69.07175720	    -15.08261991	     27.64366009	    101.39143247	    109.44160864
      1.39000000	    -22.35662720	     -5.07809538	     -8.01741323	     -0.44919211	      0.68177426	     -0.54434573	     97.83384904	     -7.50843243	      3.19470072	    104.89233984	      1.83071669	     25.29152629	     -2.75383653	     -7.36687623	     99.57083125	    -22.13437359	     17.41041962	    112.39143866	      1.96160066	     27.01298389	    -12.45577760	     -7.36687623	    -33.68473176	     -2.48013420	      7.81574383	     60.21538542	    -25.63958772	     10.55232948	    103.19676398	    110.94571120	     73.85145072	    -14.58549070	     29.22332373	    100.58752446	    109.31417954
      1.40000000	    -22.53127569	     -5.32326712	     -8.35089159	     -0.44827194	      0.67304678	     -0.54406049	     98.70751267	     -7.49781403	      2.97869576	    105.98117112	      1.84972038	     26.12686969	     -2.02658109	     -7.37008184	    100.64638438	    -22.10113369	     18.38082814	    113.63088653	      1.98323310	     27.26545799	    -12.72196302	     -7.37008184	    -34.22713061	     -2.37904508	      7.64895925	     66.63764089	    -25.35567309	     13.51876017	    102.13095512	    110.43977876	     78.28554322	    -14.56944168	     30.19341849	    100.36647153	    108.89314246
      1.41000000	    -22.78268377	     -5.31655590	     -8.75418473	     -0.44739259	      0.66520551	     -0.54362156	     99.74002094	     -7.34668667	      3.00222336	    106.97437633	      1.86705508	     26.27000936	     -1.88858873	     -7.37125159	    101.63533067	    -22.08794776	     19.12456707	    114.73795955	      2.00255517	     27.38764904	    -12.93497808	     -7.37125159	    -34.53436164	     -2.69086358	      7.87468793	     72.23305176	    -25.38639303	     15.63537614	    101.42423331	    110.29224834	     82.80290735	    -13.96905875	     31.60000896	     99.25960801	    108.73404675
      1.42000000	    -22.76816155	     -5.33628992	     -9.11652233	     -0.44644076	      0.65915275	     -0.54344645	    100.34086283	     -7.14421425	      3.08292738	    107.79824565	      1.88143431	     26.53662193	     -1.65060692	     -7.37619178	    102.18294854	    -21.99390424	     19.81105933	    115.68057948	      2.01900699	     27.34523766	    -13.23252874	     -7.37619178	    -35.18877028	     -2.86580801	      7.81412222	     77.98098942	    -24.74661916	     17.92938469	    100.32881301	    109.51995617	     86.96700911	    -13.65958214	     32.42155673	     98.69701765	    108.18409228
      1.43000000	    -22.99950973	     -5.26218842	     -9.36775018	     -0.44548972	      0.65369475	     -0.54377263	    101.12160637	     -7.07375479	      3.20556238	    108.48390915	      1.89340140	     26.58285015	     -1.62198995	     -7.37730125	    102.80915023	    -21.68270826	     20.26257264	    116.49068966	      2.03314608	     27.40581113	    -13.65422870	     -7.37730125	    -35.42755908	     -3.08622341	      7.93105509	     83.01608227	    -24.41126474	     19.65208930	     99.47257854	    109.41778487	     90.95314732	    -12.81024935	     33.39172349	     97.37968844	    108.00825911
      1.44000000	    -23.09521180	     -5.23955876	     -9.39381321	     -0.44436540	      0.64947827	     -0.54485053	    101.56606171	     -7.18426475	      3.38992625	    109.03236929	      1.90297384	     26.86050267	     -1.55762377	     -7.38001247	    103.08029358	    -21.06271569	     20.54572648	    117.12736442	      2.04425815	     27.24707570	    -14.62068761	     -7.38001247	    -35.82815675	     -3.01047319	      7.73366947	     88.01418968	    -23.78014204	     21.56210692	     98.46737344	    109.14463399	     94.53014125	    -12.14862862	     33.77911973	     96.52320645	    107.72759006
      1.45000000	    -23.26007767	     -5.16837013	     -9.41933324	     -0.44301215	      0.64616962	     -0.54565187	    101.96124043	     -7.17825904	      3.61717315	    109.45730637	      1.91039039	     27.11512929	     -1.68496971	     -7.38107008	    103.22689045	    -20.44049312	     20.76366877	    117.61530873	      2.05277439	     27.44510394	    -15.30691613	     -7.38107008	    -35.93878916	     -3.04472273	      7.58313948	     92.28961720	    -23.06735576	     22.92368005	     97.41841682	    109.07131656	     97.82930547	    -11.28784308	     34.19505470	     95.21241614	    107.57640841
      1.46000000	    -23.16868890	     -5.11076807	     -9.61007541	     -0.44127382	      0.64445044	     -0.54583408	    101.97165717	     -6.86768354	      3.80363863	    109.77145450	      1.91587331	     27.33262765	     -1.93772523	     -7.38246849	    102.96501223	    -20.08041571	     20.99039258	    117.99105723	      2.05933244	     27.43215874	    -16.12665605	     -7.38246849	    -36.26389304	     -3.21795020	      7.50665994	     96.29348399	    -22.21481135	     24.16746805	     96.39468066	    109.01490763	    100.91651519	    -10.57890115	     34.48772745	     94.14845472	    107.45009767
      1.47000000	    -23.29192881	     -5.10199751	     -9.86443259	     -0.43949648	      0.64372276	     -0.54573589	    102.07589541	     -6.40774345	      3.87609718	    109.93267559	      1.91868714	     27.40568003	     -2.25322570	     -7.38337689	    102.83663063	    -19.72225779	     21.33324612	    118.22420068	      2.06340156	     27.44882964	    -16.79774016	     -7.38337689	    -36.20046040	     -3.37390844	      7.48903958	     99.59875435	    -21.22370900	     24.89013340	     95.43743125	    108.95011369	    103.54109673	     -9.77698135	     34.58686866	     92.98084594	    107.30411215
      1.48000000	    -23.52050838	     -5.16054863	     -9.98854829	     -0.43761599	      0.64406692	     -0.54585161	    102.13655037	     -6.00995968	      3.95699230	    109.97782427	      1.91947514	     27.36669128	     -2.53580636	     -7.38398440	    102.75434898	    -19.23084917	     21.64087368	    118.32338217	      2.06513260	     27.42503326	    -17.36404762	     -7.38398440	    -35.93624174	     -3.35862228	      7.46662812	    102.41040678	    -20.30896498	     25.32174871	     94.76529620	    108.87951710	    105.72284995	     -8.90640869	     34.47380476	     92.08889982	    107.17046244
      1.49000000	    -23.40919133	     -5.35938851	     -9.99523884	     -0.43560587	      0.64586411	     -0.54646293	    101.72558056	     -5.76593619	      3.93606502	    109.93803462	      1.91878068	     27.12297392	     -3.06813618	     -7.38505625	    102.21202949	    -18.63527632	     21.84748012	    118.33480233	      2.06533192	     27.18848231	    -18.51865120	     -7.38505625	    -35.91121286	     -3.12149178	      7.57726800	    105.41093935	    -19.66656885	     26.44422773	     93.55360407	    108.75662061	    107.85737826	     -8.10085890	     34.76560632	     90.69099644	    106.96960190
      1.50000000	    -23.54026358	     -5.45995428	    -10.01918624	     -0.43352022	      0.64852640	     -0.54715378	    101.44425830	     -5.46056259	      3.97058752	    109.70352079	      1.91468764	     26.64706777	     -3.93250174	     -7.38821106	    101.78759271	    -18.02553571	     21.86620393	    118.14648495	      2.06204516	     26.09510717	    -20.46718607	     -7.38821106	    -35.59040579	     -2.92928148	      7.71268332	    107.97287572	    -19.20196277	     27.25444699	     92.97826003	    108.49607767	    109.79043944	     -7.53991006	     35.05526206	     89.95191569	    106.64997793
      1.51000000	    -23.75707888	     -5.54565480	    -10.03743879	     -0.43126577	      0.65205582	     -0.54791782	    101.10931817	     -5.17093758	      3.97237077	    109.35311746	      1.90857195	     26.58018919	     -4.33603737	     -7.38955231	    101.32345677	    -17.45500465	     21.88129844	    117.86608977	      2.05715134	     26.04631637	    -21.38834687	     -7.38955231	    -35.01858786	     -2.73679657	      7.64460889	    110.08204149	    -18.57631357	     27.81715416	     92.11900814	    108.36422075	    111.63861296	     -7.18797876	     35.56180520	     89.09532221	    106.49543721
      1.52000000	    -23.85763329	     -5.54687681	    -10.00933828	     -0.42888664	      0.65690370	     -0.54874643	    100.56482955	     -4.92183217	      4.03408262	    108.85421792	      1.89986451	     26.39600033	     -4.99318046	     -7.39119238	    100.57312579	    -16.91166182	     21.71974445	    117.41089413	      2.04920668	     25.67781828	    -22.47684784	     -7.39119238	    -34.54968239	     -2.60253445	      7.45264135	    112.17989170	    -18.02445925	     28.46218398	     91.19105717	    108.12021671	    113.39391314	     -6.87350764	     35.92146725	     88.44042229	    106.35528653
      1.53000000	    -24.05643355	     -5.46655962	     -9.96538010	     -0.42644377	      0.66282846	     -0.54951182	    100.01396008	     -4.62451231	      4.19445724	    108.18678851	      1.88821567	     26.03784028	     -5.69522391	     -7.39393566	     99.78398911	    -16.39116255	     21.40287234	    116.73908336	      2.03748137	     25.00727485	    -23.66764912	     -7.39393566	    -33.92122324	     -2.54058843	      7.28181400	    113.99084952	    -17.66157343	     28.75127094	     90.54180481	    107.54694238	    114.90970104	     -6.53992829	     36.03208349	     88.02142207	    106.22691910
